<svg width="140" height="40" viewBox="0 0 498 40" fill="none" xmlns="http://www.w3.org/2000/svg">
  <!-- Icon -->
  <svg xmlns="http://www.w3.org/2000/svg" x="0" y="0" width="40" height="40" fill="none" viewBox="0 0 498 498">
    <path fill="#8b5dff" d="M396.19 0H101.259C45.335 0 0 45.346 0 101.283v295.001c0 55.937 45.335 101.283 101.259 101.283H396.19c55.924 0 101.259-45.346 101.259-101.283V101.283C497.449 45.346 452.114 0 396.19 0" />
    <path fill="#ffffff" fill-rule="evenodd" d="M311.585 295.386c0 22.03-46.56 46.67-108.893 46.67-62.337 0-108.9-24.64-108.9-46.67v-43.324c25.263 17.175 63.969 27.767 108.9 27.767s83.63-10.592 108.893-27.767zm108.901-77.783h-31.114c-27.503 0-46.67-8.198-46.67-15.556 0-44.352-60.186-77.783-140.011-77.783-79.821 0-140.01 33.429-140.01 77.783v93.337c0 44.352 60.189 77.783 140.01 77.783 59.891 0 108.723-18.821 129.384-46.965 12.662 9.848 30.256 15.852 49.967 15.852h38.441c8.603 0 15.556-6.968 15.556-15.556V233.16c0-8.586-6.953-15.557-15.556-15.557z" clip-rule="evenodd" />
  </svg>
  <!-- Text -->
  <text x="48" y="27" fill="#fafafa" font-family="Inter, Arial, sans-serif" font-size="20" font-weight="700" letter-spacing="-0.02em">Cora</text>
</svg>
